<svg xmlns="http://www.w3.org/2000/svg" viewBox="0 0 640 420" role="img" aria-labelledby="title desc">
  <title id="title">Colosseum</title>
  <desc id="desc">A stylized Roman Colosseum at dusk.</desc>
  <rect width="640" height="420" fill="#24324a"/>
  <path d="M72 320c32-116 118-178 258-186 104-6 184 22 238 84v102z" fill="#cfa36f"/>
  <path d="M108 320c25-82 98-128 220-138 86-6 152 12 202 56v82z" fill="#e5c08a"/>
  <path d="M118 240h420M96 278h458M80 320h488" stroke="#6d4932" stroke-width="12"/>
  <g fill="#24324a">
    <path d="M152 228c0-24 12-42 28-42s28 18 28 42v26h-56z"/>
    <path d="M242 218c0-25 13-44 30-44s30 19 30 44v36h-60z"/>
    <path d="M340 216c0-24 14-42 32-42s32 18 32 42v38h-64z"/>
    <path d="M444 230c0-22 12-38 28-38s28 16 28 38v24h-56z"/>
    <path d="M188 306c0-22 13-38 30-38s30 16 30 38v36h-60z"/>
    <path d="M294 304c0-24 14-42 32-42s32 18 32 42v38h-64z"/>
    <path d="M406 308c0-21 12-36 28-36s28 15 28 36v34h-56z"/>
  </g>
  <path d="M0 336h640v84H0z" fill="#1a2538"/>
</svg>
