<svg xmlns="http://www.w3.org/2000/svg" viewBox="0 0 640 420" role="img" aria-labelledby="title desc">
  <title id="title">Eiffel Tower silhouette</title>
  <desc id="desc">A stylized Eiffel Tower in front of a Paris sunset.</desc>
  <rect width="640" height="420" fill="#173047"/>
  <circle cx="484" cy="104" r="58" fill="#f7c96b"/>
  <path d="M0 344h640v76H0z" fill="#102234"/>
  <path d="M266 348 320 48l54 300h-38l-16-122-16 122z" fill="#d7b56d"/>
  <path d="M222 348h196l-16 34H238zM276 184h88l7 26H269zM288 126h64l6 20h-76z" fill="#f1d18a"/>
  <path d="M276 348c12-44 28-70 44-70s32 26 44 70h-30c-5-24-10-36-14-36s-9 12-14 36z" fill="#102234"/>
  <path d="M251 276h138M260 236h120M270 196h100" stroke="#102234" stroke-width="10" stroke-linecap="round"/>
  <path d="M62 346c34-36 70-36 108 0 30-26 64-26 104 0" fill="none" stroke="#5ab0aa" stroke-width="12" stroke-linecap="round"/>
</svg>
