<svg xmlns="http://www.w3.org/2000/svg" viewBox="0 0 640 420" role="img" aria-labelledby="title desc">
  <title id="title">Taj Mahal</title>
  <desc id="desc">A stylized white marble mausoleum with dome and minarets.</desc>
  <rect width="640" height="420" fill="#1d3b55"/>
  <circle cx="112" cy="88" r="50" fill="#f6d36f"/>
  <path d="M0 314h640v106H0z" fill="#173047"/>
  <path d="M198 308h244v54H198z" fill="#f3efe2"/>
  <path d="M226 216h188v92H226z" fill="#fff8e8"/>
  <path d="M250 216c8-58 132-58 140 0z" fill="#fff8e8"/>
  <path d="M304 124h32v30h-32zM286 154c10-50 58-50 68 0z" fill="#fff8e8"/>
  <path d="M164 180h32v182h-32zM444 180h32v182h-32z" fill="#f3efe2"/>
  <path d="M158 166h44l-22-36zM438 166h44l-22-36z" fill="#fff8e8"/>
  <g fill="#1d3b55">
    <path d="M270 278c0-30 20-52 50-52s50 22 50 52v84H270z"/>
    <path d="M238 260c0-18 12-31 28-31s28 13 28 31v48h-56z"/>
    <path d="M346 260c0-18 12-31 28-31s28 13 28 31v48h-56z"/>
  </g>
  <path d="M82 362h476" stroke="#67a7aa" stroke-width="14" stroke-linecap="round"/>
</svg>
